<svg xmlns="http://www.w3.org/2000/svg" xmlns:xlink="http://www.w3.org/1999/xlink" width="100" zoomAndPan="magnify" viewBox="0 0 75 74.999997" height="100" preserveAspectRatio="xMidYMid meet" version="1.0"><defs><clipPath id="c319289e70"><path d="M 12.925781 0.546875 L 62.425781 0.546875 L 62.425781 74.792969 L 12.925781 74.792969 Z M 12.925781 0.546875 " clip-rule="nonzero"/></clipPath></defs><g clip-path="url(#c319289e70)"><path fill="#011a47" d="M 58.019531 74.273438 L 17.09375 74.273438 C 14.820312 74.273438 12.96875 72.421875 12.96875 70.152344 L 12.96875 4.839844 C 12.96875 2.566406 14.820312 0.714844 17.09375 0.714844 L 58.019531 0.714844 C 60.292969 0.714844 62.140625 2.566406 62.140625 4.839844 L 62.140625 70.152344 C 62.140625 72.421875 60.292969 74.273438 58.019531 74.273438 Z M 17.09375 1.832031 C 15.433594 1.832031 14.082031 3.179688 14.082031 4.839844 L 14.082031 70.152344 C 14.082031 71.808594 15.433594 73.15625 17.09375 73.15625 L 58.019531 73.15625 C 59.675781 73.15625 61.027344 71.808594 61.027344 70.152344 L 61.027344 4.839844 C 61.027344 3.179688 59.675781 1.832031 58.019531 1.832031 Z M 17.09375 1.832031 " fill-opacity="1" fill-rule="nonzero"/></g><path fill="#011a47" d="M 38.644531 5.058594 C 38.644531 5.203125 38.617188 5.34375 38.5625 5.476562 C 38.507812 5.609375 38.429688 5.726562 38.328125 5.828125 C 38.222656 5.933594 38.105469 6.011719 37.972656 6.066406 C 37.839844 6.121094 37.699219 6.148438 37.554688 6.148438 C 37.410156 6.148438 37.269531 6.121094 37.136719 6.066406 C 37.003906 6.011719 36.886719 5.933594 36.785156 5.828125 C 36.679688 5.726562 36.601562 5.609375 36.546875 5.476562 C 36.492188 5.34375 36.464844 5.203125 36.464844 5.058594 C 36.464844 4.914062 36.492188 4.773438 36.546875 4.640625 C 36.601562 4.507812 36.679688 4.390625 36.785156 4.285156 C 36.886719 4.183594 37.003906 4.105469 37.136719 4.050781 C 37.269531 3.996094 37.410156 3.96875 37.554688 3.96875 C 37.699219 3.96875 37.839844 3.996094 37.972656 4.050781 C 38.105469 4.105469 38.222656 4.183594 38.328125 4.285156 C 38.429688 4.390625 38.507812 4.507812 38.5625 4.640625 C 38.617188 4.773438 38.644531 4.914062 38.644531 5.058594 Z M 38.644531 5.058594 " fill-opacity="1" fill-rule="nonzero"/><path fill="#011a47" d="M 37.554688 72.640625 C 36.167969 72.640625 35.035156 71.507812 35.035156 70.121094 C 35.035156 68.734375 36.167969 67.601562 37.554688 67.601562 C 38.941406 67.601562 40.074219 68.734375 40.074219 70.121094 C 40.074219 71.507812 38.941406 72.640625 37.554688 72.640625 Z M 37.554688 68.71875 C 36.78125 68.71875 36.152344 69.347656 36.152344 70.121094 C 36.152344 70.894531 36.78125 71.527344 37.554688 71.527344 C 38.328125 71.527344 38.957031 70.894531 38.957031 70.121094 C 38.957031 69.347656 38.328125 68.71875 37.554688 68.71875 Z M 37.554688 68.71875 " fill-opacity="1" fill-rule="nonzero"/><path fill="#011a47" d="M 60.035156 66.988281 L 15.074219 66.988281 L 15.074219 7.410156 L 60.035156 7.410156 Z M 16.1875 65.875 L 58.921875 65.875 L 58.921875 8.523438 L 16.1875 8.523438 Z M 16.1875 65.875 " fill-opacity="1" fill-rule="nonzero"/></svg>