<svg xmlns="http://www.w3.org/2000/svg" xmlns:xlink="http://www.w3.org/1999/xlink" width="100" zoomAndPan="magnify" viewBox="0 0 75 74.999997" height="100" preserveAspectRatio="xMidYMid meet" version="1.0"><defs><clipPath id="58add6310f"><path d="M 0.332031 0.332031 L 74.667969 0.332031 L 74.667969 74.667969 L 0.332031 74.667969 Z M 0.332031 0.332031 " clip-rule="nonzero"/></clipPath><clipPath id="1f47079235"><path d="M 37.5 0.332031 C 16.972656 0.332031 0.332031 16.972656 0.332031 37.5 C 0.332031 58.027344 16.972656 74.667969 37.5 74.667969 C 58.027344 74.667969 74.667969 58.027344 74.667969 37.5 C 74.667969 16.972656 58.027344 0.332031 37.5 0.332031 Z M 37.5 0.332031 " clip-rule="nonzero"/></clipPath><clipPath id="6f8957a7c8"><path d="M 0.332031 0.332031 L 74.667969 0.332031 L 74.667969 74.667969 L 0.332031 74.667969 Z M 0.332031 0.332031 " clip-rule="nonzero"/></clipPath><clipPath id="132d538a11"><path d="M 37.5 0.332031 C 16.972656 0.332031 0.332031 16.972656 0.332031 37.5 C 0.332031 58.027344 16.972656 74.667969 37.5 74.667969 C 58.027344 74.667969 74.667969 58.027344 74.667969 37.5 C 74.667969 16.972656 58.027344 0.332031 37.5 0.332031 Z M 37.5 0.332031 " clip-rule="nonzero"/></clipPath><clipPath id="577954d48b"><rect x="0" width="75" y="0" height="75"/></clipPath><clipPath id="b9ebc551f5"><path d="M 22.5 24.523438 L 52.5 24.523438 L 52.5 50.773438 L 22.5 50.773438 Z M 22.5 24.523438 " clip-rule="nonzero"/></clipPath></defs><g clip-path="url(#58add6310f)"><g clip-path="url(#1f47079235)"><g transform="matrix(1, 0, 0, 1, 0.000000000000000028, -0.000000000000001887)"><g clip-path="url(#577954d48b)"><g clip-path="url(#6f8957a7c8)"><g clip-path="url(#132d538a11)"><path fill="#011a47" d="M 0.332031 0.332031 L 74.667969 0.332031 L 74.667969 74.667969 L 0.332031 74.667969 Z M 0.332031 0.332031 " fill-opacity="1" fill-rule="nonzero"/></g></g></g></g></g></g><path fill="#e69c24" d="M 43.464844 32.476562 C 42.367188 32.476562 41.476562 33.367188 41.476562 34.464844 C 41.476562 35.5625 42.367188 36.453125 43.464844 36.453125 C 44.5625 36.453125 45.453125 35.5625 45.453125 34.464844 C 45.453125 33.367188 44.5625 32.476562 43.464844 32.476562 Z M 37.5 32.476562 C 36.402344 32.476562 35.511719 33.367188 35.511719 34.464844 C 35.511719 35.5625 36.402344 36.453125 37.5 36.453125 C 38.597656 36.453125 39.488281 35.5625 39.488281 34.464844 C 39.488281 33.367188 38.597656 32.476562 37.5 32.476562 Z M 31.535156 32.476562 C 30.4375 32.476562 29.546875 33.367188 29.546875 34.464844 C 29.546875 35.5625 30.4375 36.453125 31.535156 36.453125 C 32.632812 36.453125 33.523438 35.5625 33.523438 34.464844 C 33.523438 33.367188 32.632812 32.476562 31.535156 32.476562 Z M 31.535156 32.476562 " fill-opacity="1" fill-rule="evenodd"/><g clip-path="url(#b9ebc551f5)"><path fill="#e69c24" d="M 27.664062 44.464844 L 26.046875 49.046875 C 25.902344 49.449219 26.039062 49.902344 26.378906 50.164062 C 26.71875 50.425781 27.1875 50.441406 27.542969 50.199219 L 35.972656 44.464844 C 35.972656 44.464844 49.191406 44.464844 49.191406 44.464844 C 50.054688 44.464844 50.882812 44.101562 51.492188 43.445312 C 52.078125 42.820312 52.410156 41.96875 52.410156 41.078125 C 52.410156 37.640625 52.410156 31.347656 52.410156 27.914062 C 52.410156 27.023438 52.078125 26.171875 51.492188 25.542969 C 50.882812 24.886719 50.054688 24.523438 49.191406 24.523438 C 43.976562 24.523438 31.023438 24.523438 25.808594 24.523438 C 24.945312 24.523438 24.117188 24.886719 23.507812 25.542969 C 22.921875 26.171875 22.589844 27.023438 22.589844 27.914062 C 22.589844 31.347656 22.589844 37.640625 22.589844 41.078125 C 22.589844 41.96875 22.921875 42.820312 23.507812 43.445312 C 24.117188 44.101562 24.945312 44.464844 25.808594 44.464844 Z M 30.007812 43.804688 C 30.117188 43.5 30.070312 43.160156 29.882812 42.898438 C 29.695312 42.632812 29.394531 42.476562 29.070312 42.476562 L 25.808594 42.476562 C 25.492188 42.476562 25.1875 42.335938 24.960938 42.09375 C 24.714844 41.824219 24.578125 41.457031 24.578125 41.078125 L 24.578125 27.914062 C 24.578125 27.53125 24.714844 27.167969 24.960938 26.898438 C 25.1875 26.65625 25.492188 26.511719 25.808594 26.511719 L 49.191406 26.511719 C 49.507812 26.511719 49.8125 26.65625 50.039062 26.898438 C 50.285156 27.167969 50.421875 27.53125 50.421875 27.914062 L 50.421875 41.078125 C 50.421875 41.457031 50.285156 41.824219 50.039062 42.09375 C 49.8125 42.335938 49.507812 42.476562 49.191406 42.476562 L 35.664062 42.476562 C 35.464844 42.476562 35.269531 42.539062 35.105469 42.648438 L 28.933594 46.851562 C 28.933594 46.851562 30.007812 43.804688 30.007812 43.804688 Z M 30.007812 43.804688 " fill-opacity="1" fill-rule="evenodd"/></g></svg>