<svg xmlns="http://www.w3.org/2000/svg" xmlns:xlink="http://www.w3.org/1999/xlink" width="100" zoomAndPan="magnify" viewBox="0 0 75 74.999997" height="100" preserveAspectRatio="xMidYMid meet" version="1.0"><defs><clipPath id="c60d445e92"><path d="M 0.332031 0.332031 L 74.667969 0.332031 L 74.667969 74.667969 L 0.332031 74.667969 Z M 0.332031 0.332031 " clip-rule="nonzero"/></clipPath><clipPath id="7202a25179"><path d="M 37.5 0.332031 C 16.972656 0.332031 0.332031 16.972656 0.332031 37.5 C 0.332031 58.027344 16.972656 74.667969 37.5 74.667969 C 58.027344 74.667969 74.667969 58.027344 74.667969 37.5 C 74.667969 16.972656 58.027344 0.332031 37.5 0.332031 Z M 37.5 0.332031 " clip-rule="nonzero"/></clipPath><clipPath id="9e504fd80c"><path d="M 0.332031 0.332031 L 74.667969 0.332031 L 74.667969 74.667969 L 0.332031 74.667969 Z M 0.332031 0.332031 " clip-rule="nonzero"/></clipPath><clipPath id="d2003a12dd"><path d="M 37.5 0.332031 C 16.972656 0.332031 0.332031 16.972656 0.332031 37.5 C 0.332031 58.027344 16.972656 74.667969 37.5 74.667969 C 58.027344 74.667969 74.667969 58.027344 74.667969 37.5 C 74.667969 16.972656 58.027344 0.332031 37.5 0.332031 Z M 37.5 0.332031 " clip-rule="nonzero"/></clipPath><clipPath id="fd4cd85867"><rect x="0" width="75" y="0" height="75"/></clipPath><clipPath id="344964c97f"><path d="M 25.199219 22.5 L 49.949219 22.5 L 49.949219 52.5 L 25.199219 52.5 Z M 25.199219 22.5 " clip-rule="nonzero"/></clipPath></defs><g clip-path="url(#c60d445e92)"><g clip-path="url(#7202a25179)"><g transform="matrix(1, 0, 0, 1, 0, -0.000000000000001887)"><g clip-path="url(#fd4cd85867)"><g clip-path="url(#9e504fd80c)"><g clip-path="url(#d2003a12dd)"><path fill="#011a47" d="M 0.332031 0.332031 L 74.667969 0.332031 L 74.667969 74.667969 L 0.332031 74.667969 Z M 0.332031 0.332031 " fill-opacity="1" fill-rule="nonzero"/></g></g></g></g></g></g><g clip-path="url(#344964c97f)"><path fill="#e69c24" d="M 49.464844 26.5625 C 49.253906 26.375 48.96875 26.285156 48.6875 26.316406 C 48.097656 26.382812 47.492188 26.417969 46.886719 26.417969 C 42.527344 26.417969 39.472656 24.75 38.707031 23.101562 C 38.542969 22.75 38.191406 22.523438 37.804688 22.523438 L 37.195312 22.523438 C 36.808594 22.523438 36.453125 22.75 36.289062 23.101562 C 35.523438 24.75 32.46875 26.417969 28.109375 26.417969 C 27.507812 26.417969 26.902344 26.382812 26.3125 26.316406 C 26.027344 26.285156 25.746094 26.375 25.535156 26.5625 C 25.320312 26.753906 25.199219 27.023438 25.199219 27.308594 L 25.199219 33.320312 C 25.199219 41.472656 29.742188 48.773438 37.058594 52.375 C 37.195312 52.441406 37.347656 52.476562 37.5 52.476562 C 37.648438 52.476562 37.800781 52.441406 37.941406 52.375 C 45.253906 48.773438 49.796875 41.472656 49.796875 33.320312 L 49.796875 27.308594 C 49.796875 27.023438 49.675781 26.753906 49.464844 26.5625 Z M 47.800781 33.320312 C 47.800781 40.539062 43.867188 47.023438 37.5 50.359375 C 31.132812 47.023438 27.195312 40.539062 27.195312 33.320312 L 27.195312 28.390625 C 27.5 28.40625 27.804688 28.414062 28.109375 28.414062 C 32.246094 28.414062 35.828125 27.042969 37.5 24.914062 C 39.167969 27.042969 42.753906 28.414062 46.886719 28.414062 C 47.191406 28.414062 47.496094 28.40625 47.800781 28.390625 Z M 45.144531 31.878906 C 45.527344 32.273438 45.515625 32.90625 45.117188 33.289062 L 36.445312 41.652344 C 36.257812 41.832031 36.011719 41.929688 35.75 41.929688 C 35.742188 41.929688 35.730469 41.929688 35.71875 41.929688 C 35.449219 41.921875 35.195312 41.804688 35.015625 41.605469 L 31.832031 38.109375 C 31.460938 37.703125 31.488281 37.070312 31.898438 36.699219 C 32.304688 36.328125 32.9375 36.359375 33.308594 36.765625 L 35.796875 39.5 L 43.734375 31.851562 C 44.128906 31.46875 44.761719 31.480469 45.144531 31.878906 Z M 45.144531 31.878906 " fill-opacity="1" fill-rule="nonzero"/></g></svg>