<svg xmlns="http://www.w3.org/2000/svg" xmlns:xlink="http://www.w3.org/1999/xlink" width="100" zoomAndPan="magnify" viewBox="0 0 75 74.999997" height="100" preserveAspectRatio="xMidYMid meet" version="1.0"><defs><clipPath id="a820b58cbd"><path d="M 1.789062 1.789062 L 73.210938 1.789062 L 73.210938 73.210938 L 1.789062 73.210938 Z M 1.789062 1.789062 " clip-rule="nonzero"/></clipPath><clipPath id="6e50385fd6"><path d="M 37.5 1.789062 C 17.777344 1.789062 1.789062 17.777344 1.789062 37.5 C 1.789062 57.222656 17.777344 73.210938 37.5 73.210938 C 57.222656 73.210938 73.210938 57.222656 73.210938 37.5 C 73.210938 17.777344 57.222656 1.789062 37.5 1.789062 Z M 37.5 1.789062 " clip-rule="nonzero"/></clipPath><clipPath id="abac05c688"><path d="M 0.789062 0.789062 L 72.210938 0.789062 L 72.210938 72.210938 L 0.789062 72.210938 Z M 0.789062 0.789062 " clip-rule="nonzero"/></clipPath><clipPath id="83ab222810"><path d="M 36.5 0.789062 C 16.777344 0.789062 0.789062 16.777344 0.789062 36.5 C 0.789062 56.222656 16.777344 72.210938 36.5 72.210938 C 56.222656 72.210938 72.210938 56.222656 72.210938 36.5 C 72.210938 16.777344 56.222656 0.789062 36.5 0.789062 Z M 36.5 0.789062 " clip-rule="nonzero"/></clipPath><clipPath id="0c8d148b91"><rect x="0" width="73" y="0" height="73"/></clipPath><clipPath id="38d4f1a259"><path d="M 2.761719 2.460938 L 72.238281 2.460938 L 72.238281 72.75 L 2.761719 72.75 Z M 2.761719 2.460938 " clip-rule="nonzero"/></clipPath><clipPath id="f121d2fba1"><path d="M 37.5 2.460938 C 18.316406 2.460938 2.761719 18.148438 2.761719 37.5 C 2.761719 56.851562 18.316406 72.539062 37.5 72.539062 C 56.683594 72.539062 72.238281 56.851562 72.238281 37.5 C 72.238281 18.148438 56.683594 2.460938 37.5 2.460938 Z M 37.5 2.460938 " clip-rule="nonzero"/></clipPath><clipPath id="3216649f8f"><path d="M 0.761719 0.460938 L 70.238281 0.460938 L 70.238281 70.71875 L 0.761719 70.71875 Z M 0.761719 0.460938 " clip-rule="nonzero"/></clipPath><clipPath id="548238cb9a"><path d="M 35.5 0.460938 C 16.316406 0.460938 0.761719 16.148438 0.761719 35.5 C 0.761719 54.851562 16.316406 70.539062 35.5 70.539062 C 54.683594 70.539062 70.238281 54.851562 70.238281 35.5 C 70.238281 16.148438 54.683594 0.460938 35.5 0.460938 Z M 35.5 0.460938 " clip-rule="nonzero"/></clipPath><clipPath id="3603a4c2a4"><rect x="0" width="71" y="0" height="71"/></clipPath><clipPath id="3fce617dd1"><path d="M 29 22.5 L 46 22.5 L 46 39 L 29 39 Z M 29 22.5 " clip-rule="nonzero"/></clipPath><clipPath id="39d1553d7f"><path d="M 23.023438 39 L 52 39 L 52 52.5 L 23.023438 52.5 Z M 23.023438 39 " clip-rule="nonzero"/></clipPath></defs><g clip-path="url(#a820b58cbd)"><g clip-path="url(#6e50385fd6)"><g transform="matrix(1, 0, 0, 1, 1, 1)"><g clip-path="url(#0c8d148b91)"><g clip-path="url(#abac05c688)"><g clip-path="url(#83ab222810)"><path fill="#d08c0d" d="M 0.789062 0.789062 L 72.210938 0.789062 L 72.210938 72.210938 L 0.789062 72.210938 Z M 0.789062 0.789062 " fill-opacity="1" fill-rule="nonzero"/></g></g></g></g></g></g><g clip-path="url(#38d4f1a259)"><g clip-path="url(#f121d2fba1)"><g transform="matrix(1, 0, 0, 1, 2, 2)"><g clip-path="url(#3603a4c2a4)"><g clip-path="url(#3216649f8f)"><g clip-path="url(#548238cb9a)"><path fill="#001936" d="M 0.761719 0.460938 L 70.238281 0.460938 L 70.238281 70.480469 L 0.761719 70.480469 Z M 0.761719 0.460938 " fill-opacity="1" fill-rule="nonzero"/></g></g></g></g></g></g><g clip-path="url(#3fce617dd1)"><path fill="#ffffff" d="M 45.261719 30.390625 C 45.261719 30.902344 45.214844 31.410156 45.113281 31.914062 C 45.011719 32.417969 44.863281 32.90625 44.667969 33.382812 C 44.472656 33.855469 44.230469 34.304688 43.945312 34.730469 C 43.660156 35.160156 43.335938 35.554688 42.972656 35.917969 C 42.609375 36.28125 42.214844 36.605469 41.789062 36.890625 C 41.363281 37.175781 40.914062 37.414062 40.4375 37.609375 C 39.964844 37.808594 39.476562 37.957031 38.972656 38.054688 C 38.46875 38.15625 37.960938 38.207031 37.445312 38.207031 C 36.933594 38.207031 36.425781 38.15625 35.921875 38.054688 C 35.417969 37.957031 34.929688 37.808594 34.457031 37.609375 C 33.980469 37.414062 33.53125 37.175781 33.105469 36.890625 C 32.679688 36.605469 32.285156 36.28125 31.921875 35.917969 C 31.558594 35.554688 31.234375 35.160156 30.949219 34.730469 C 30.664062 34.304688 30.421875 33.855469 30.226562 33.382812 C 30.03125 32.90625 29.882812 32.417969 29.78125 31.914062 C 29.679688 31.410156 29.632812 30.902344 29.632812 30.390625 C 29.632812 29.875 29.679688 29.367188 29.78125 28.863281 C 29.882812 28.363281 30.03125 27.871094 30.226562 27.398438 C 30.421875 26.925781 30.664062 26.472656 30.949219 26.046875 C 31.234375 25.621094 31.558594 25.226562 31.921875 24.863281 C 32.285156 24.5 32.679688 24.175781 33.105469 23.890625 C 33.53125 23.605469 33.980469 23.363281 34.457031 23.167969 C 34.929688 22.972656 35.417969 22.824219 35.921875 22.722656 C 36.425781 22.625 36.933594 22.574219 37.445312 22.574219 C 37.960938 22.574219 38.46875 22.625 38.972656 22.722656 C 39.476562 22.824219 39.964844 22.972656 40.4375 23.167969 C 40.914062 23.363281 41.363281 23.605469 41.789062 23.890625 C 42.214844 24.175781 42.609375 24.5 42.972656 24.863281 C 43.335938 25.226562 43.660156 25.621094 43.945312 26.046875 C 44.230469 26.472656 44.472656 26.925781 44.667969 27.398438 C 44.863281 27.871094 45.011719 28.363281 45.113281 28.863281 C 45.214844 29.367188 45.261719 29.875 45.261719 30.390625 Z M 45.261719 30.390625 " fill-opacity="1" fill-rule="nonzero"/></g><g clip-path="url(#39d1553d7f)"><path fill="#ffffff" d="M 26.941406 52.324219 L 47.953125 52.324219 C 48.257812 52.320312 48.558594 52.28125 48.855469 52.207031 C 49.152344 52.128906 49.4375 52.019531 49.707031 51.875 C 49.976562 51.730469 50.226562 51.558594 50.453125 51.351562 C 50.683594 51.148438 50.882812 50.921875 51.054688 50.667969 C 51.230469 50.414062 51.371094 50.144531 51.476562 49.859375 C 51.585938 49.574219 51.660156 49.277344 51.695312 48.972656 C 51.734375 48.671875 51.734375 48.367188 51.699219 48.0625 C 51.660156 47.757812 51.589844 47.460938 51.484375 47.175781 C 51.046875 46.074219 50.457031 45.058594 49.714844 44.132812 C 48.972656 43.207031 48.113281 42.414062 47.128906 41.746094 C 46.148438 41.082031 45.089844 40.578125 43.953125 40.230469 C 42.820312 39.886719 41.660156 39.714844 40.472656 39.71875 L 34.421875 39.71875 C 33.238281 39.71875 32.078125 39.890625 30.945312 40.238281 C 29.8125 40.585938 28.753906 41.09375 27.773438 41.757812 C 26.789062 42.421875 25.929688 43.214844 25.1875 44.140625 C 24.441406 45.0625 23.851562 46.074219 23.410156 47.175781 C 23.304688 47.460938 23.234375 47.757812 23.195312 48.0625 C 23.160156 48.367188 23.160156 48.671875 23.199219 48.972656 C 23.234375 49.277344 23.308594 49.574219 23.417969 49.859375 C 23.523438 50.144531 23.664062 50.414062 23.839844 50.667969 C 24.011719 50.921875 24.210938 51.148438 24.441406 51.355469 C 24.667969 51.558594 24.917969 51.730469 25.1875 51.875 C 25.457031 52.019531 25.742188 52.128906 26.039062 52.207031 C 26.335938 52.28125 26.636719 52.324219 26.941406 52.324219 Z M 26.941406 52.324219 " fill-opacity="1" fill-rule="nonzero"/></g></svg>