<svg xmlns="http://www.w3.org/2000/svg" xmlns:xlink="http://www.w3.org/1999/xlink" width="100" zoomAndPan="magnify" viewBox="0 0 75 74.999997" height="100" preserveAspectRatio="xMidYMid meet" version="1.0"><defs><clipPath id="4103e65548"><path d="M 5.253906 1.667969 L 69.753906 1.667969 L 69.753906 73.667969 L 5.253906 73.667969 Z M 5.253906 1.667969 " clip-rule="nonzero"/></clipPath><clipPath id="94d0b9bce2"><path d="M 5.253906 53 L 8 53 L 8 56 L 5.253906 56 Z M 5.253906 53 " clip-rule="nonzero"/></clipPath></defs><path fill="#001934" d="M 13.613281 36.296875 L 18.390625 36.296875 C 18.707031 36.296875 19.011719 36.238281 19.304688 36.117188 C 19.597656 35.996094 19.855469 35.824219 20.078125 35.597656 C 20.300781 35.375 20.476562 35.117188 20.597656 34.824219 C 20.71875 34.53125 20.777344 34.226562 20.777344 33.910156 L 20.777344 29.132812 C 20.777344 28.816406 20.71875 28.511719 20.597656 28.21875 C 20.476562 27.925781 20.300781 27.667969 20.078125 27.445312 C 19.855469 27.21875 19.597656 27.046875 19.304688 26.925781 C 19.011719 26.804688 18.707031 26.746094 18.390625 26.746094 L 13.613281 26.746094 C 13.296875 26.746094 12.992188 26.804688 12.699219 26.925781 C 12.40625 27.046875 12.148438 27.21875 11.921875 27.445312 C 11.699219 27.667969 11.527344 27.925781 11.40625 28.21875 C 11.285156 28.511719 11.222656 28.816406 11.222656 29.132812 L 11.222656 33.910156 C 11.222656 34.226562 11.285156 34.53125 11.40625 34.824219 C 11.527344 35.117188 11.699219 35.375 11.921875 35.597656 C 12.148438 35.824219 12.40625 35.996094 12.699219 36.117188 C 12.992188 36.238281 13.296875 36.296875 13.613281 36.296875 Z M 13.613281 29.132812 L 18.390625 29.132812 L 18.390625 33.910156 L 13.613281 33.910156 Z M 13.613281 29.132812 " fill-opacity="1" fill-rule="nonzero"/><path fill="#001934" d="M 27.941406 36.296875 L 32.71875 36.296875 C 33.035156 36.296875 33.339844 36.238281 33.632812 36.117188 C 33.925781 35.996094 34.183594 35.824219 34.410156 35.597656 C 34.632812 35.375 34.804688 35.117188 34.925781 34.824219 C 35.046875 34.53125 35.109375 34.226562 35.109375 33.910156 L 35.109375 29.132812 C 35.109375 28.816406 35.046875 28.511719 34.925781 28.21875 C 34.804688 27.925781 34.632812 27.667969 34.410156 27.445312 C 34.183594 27.21875 33.925781 27.046875 33.632812 26.925781 C 33.339844 26.804688 33.035156 26.746094 32.71875 26.746094 L 27.941406 26.746094 C 27.625 26.746094 27.320312 26.804688 27.027344 26.925781 C 26.738281 27.046875 26.476562 27.21875 26.253906 27.445312 C 26.03125 27.667969 25.859375 27.925781 25.738281 28.21875 C 25.617188 28.511719 25.554688 28.816406 25.554688 29.132812 L 25.554688 33.910156 C 25.554688 34.226562 25.617188 34.53125 25.738281 34.824219 C 25.859375 35.117188 26.03125 35.375 26.253906 35.597656 C 26.476562 35.824219 26.738281 35.996094 27.027344 36.117188 C 27.320312 36.238281 27.625 36.296875 27.941406 36.296875 Z M 27.941406 29.132812 L 32.71875 29.132812 L 32.71875 33.910156 L 27.941406 33.910156 Z M 27.941406 29.132812 " fill-opacity="1" fill-rule="nonzero"/><path fill="#001934" d="M 42.273438 36.296875 L 47.050781 36.296875 C 47.367188 36.296875 47.671875 36.238281 47.964844 36.117188 C 48.257812 35.996094 48.515625 35.824219 48.738281 35.597656 C 48.964844 35.375 49.136719 35.117188 49.257812 34.824219 C 49.378906 34.53125 49.4375 34.226562 49.4375 33.910156 L 49.4375 29.132812 C 49.4375 28.816406 49.378906 28.511719 49.257812 28.21875 C 49.136719 27.925781 48.964844 27.667969 48.738281 27.445312 C 48.515625 27.21875 48.257812 27.046875 47.964844 26.925781 C 47.671875 26.804688 47.367188 26.746094 47.050781 26.746094 L 42.273438 26.746094 C 41.957031 26.746094 41.652344 26.804688 41.359375 26.925781 C 41.066406 27.046875 40.808594 27.21875 40.585938 27.445312 C 40.359375 27.667969 40.1875 27.925781 40.066406 28.21875 C 39.945312 28.511719 39.886719 28.816406 39.886719 29.132812 L 39.886719 33.910156 C 39.886719 34.226562 39.945312 34.53125 40.066406 34.824219 C 40.1875 35.117188 40.359375 35.375 40.585938 35.597656 C 40.808594 35.824219 41.066406 35.996094 41.359375 36.117188 C 41.652344 36.238281 41.957031 36.296875 42.273438 36.296875 Z M 42.273438 29.132812 L 47.050781 29.132812 L 47.050781 33.910156 L 42.273438 33.910156 Z M 42.273438 29.132812 " fill-opacity="1" fill-rule="nonzero"/><path fill="#001934" d="M 56.605469 36.296875 L 61.382812 36.296875 C 61.699219 36.296875 62.003906 36.238281 62.296875 36.117188 C 62.589844 35.996094 62.847656 35.824219 63.070312 35.597656 C 63.292969 35.375 63.46875 35.117188 63.589844 34.824219 C 63.710938 34.53125 63.769531 34.226562 63.769531 33.910156 L 63.769531 29.132812 C 63.769531 28.816406 63.710938 28.511719 63.589844 28.21875 C 63.46875 27.925781 63.292969 27.667969 63.070312 27.445312 C 62.847656 27.21875 62.589844 27.046875 62.296875 26.925781 C 62.003906 26.804688 61.699219 26.746094 61.382812 26.746094 L 56.605469 26.746094 C 56.289062 26.746094 55.984375 26.804688 55.691406 26.925781 C 55.398438 27.046875 55.140625 27.21875 54.914062 27.445312 C 54.691406 27.667969 54.519531 27.925781 54.398438 28.21875 C 54.277344 28.511719 54.214844 28.816406 54.214844 29.132812 L 54.214844 33.910156 C 54.214844 34.226562 54.277344 34.53125 54.398438 34.824219 C 54.519531 35.117188 54.691406 35.375 54.914062 35.597656 C 55.140625 35.824219 55.398438 35.996094 55.691406 36.117188 C 55.984375 36.238281 56.289062 36.296875 56.605469 36.296875 Z M 56.605469 29.132812 L 61.382812 29.132812 L 61.382812 33.910156 L 56.605469 33.910156 Z M 56.605469 29.132812 " fill-opacity="1" fill-rule="nonzero"/><path fill="#001934" d="M 11.222656 47.046875 C 11.222656 47.363281 11.285156 47.667969 11.40625 47.960938 C 11.527344 48.253906 11.699219 48.511719 11.921875 48.734375 C 12.148438 48.960938 12.40625 49.132812 12.699219 49.253906 C 12.992188 49.375 13.296875 49.433594 13.613281 49.433594 L 18.390625 49.433594 C 18.707031 49.433594 19.011719 49.375 19.304688 49.253906 C 19.597656 49.132812 19.855469 48.960938 20.078125 48.734375 C 20.300781 48.511719 20.476562 48.253906 20.597656 47.960938 C 20.71875 47.667969 20.777344 47.363281 20.777344 47.046875 L 20.777344 42.269531 C 20.777344 41.953125 20.71875 41.648438 20.597656 41.355469 C 20.476562 41.0625 20.300781 40.804688 20.078125 40.582031 C 19.855469 40.355469 19.597656 40.183594 19.304688 40.0625 C 19.011719 39.941406 18.707031 39.882812 18.390625 39.882812 L 13.613281 39.882812 C 13.296875 39.882812 12.992188 39.941406 12.699219 40.0625 C 12.40625 40.183594 12.148438 40.355469 11.921875 40.582031 C 11.699219 40.804688 11.527344 41.0625 11.40625 41.355469 C 11.285156 41.648438 11.222656 41.953125 11.222656 42.269531 Z M 13.613281 42.269531 L 18.390625 42.269531 L 18.390625 47.046875 L 13.613281 47.046875 Z M 13.613281 42.269531 " fill-opacity="1" fill-rule="nonzero"/><path fill="#001934" d="M 25.554688 46.449219 C 25.554688 46.765625 25.617188 47.070312 25.738281 47.363281 C 25.859375 47.65625 26.03125 47.914062 26.253906 48.136719 C 26.476562 48.363281 26.738281 48.535156 27.027344 48.65625 C 27.320312 48.777344 27.625 48.835938 27.941406 48.835938 L 32.71875 48.835938 C 33.035156 48.835938 33.339844 48.777344 33.632812 48.65625 C 33.925781 48.535156 34.183594 48.363281 34.410156 48.136719 C 34.632812 47.914062 34.804688 47.65625 34.925781 47.363281 C 35.046875 47.070312 35.109375 46.765625 35.109375 46.449219 L 35.109375 41.671875 C 35.109375 41.355469 35.046875 41.050781 34.925781 40.757812 C 34.804688 40.464844 34.632812 40.207031 34.410156 39.984375 C 34.183594 39.757812 33.925781 39.585938 33.632812 39.464844 C 33.339844 39.34375 33.035156 39.285156 32.71875 39.285156 L 27.941406 39.285156 C 27.625 39.285156 27.320312 39.34375 27.027344 39.464844 C 26.738281 39.585938 26.476562 39.757812 26.253906 39.984375 C 26.03125 40.207031 25.859375 40.464844 25.738281 40.757812 C 25.617188 41.050781 25.554688 41.355469 25.554688 41.671875 Z M 27.941406 41.671875 L 32.71875 41.671875 L 32.71875 46.449219 L 27.941406 46.449219 Z M 27.941406 41.671875 " fill-opacity="1" fill-rule="nonzero"/><path fill="#001934" d="M 39.886719 46.449219 C 39.886719 46.765625 39.945312 47.070312 40.066406 47.363281 C 40.1875 47.65625 40.359375 47.914062 40.585938 48.136719 C 40.808594 48.363281 41.066406 48.535156 41.359375 48.65625 C 41.652344 48.777344 41.957031 48.835938 42.273438 48.835938 L 47.050781 48.835938 C 47.367188 48.835938 47.671875 48.777344 47.964844 48.65625 C 48.257812 48.535156 48.515625 48.363281 48.738281 48.136719 C 48.964844 47.914062 49.136719 47.65625 49.257812 47.363281 C 49.378906 47.070312 49.4375 46.765625 49.4375 46.449219 L 49.4375 41.671875 C 49.4375 41.355469 49.378906 41.050781 49.257812 40.757812 C 49.136719 40.464844 48.964844 40.207031 48.738281 39.984375 C 48.515625 39.757812 48.257812 39.585938 47.964844 39.464844 C 47.671875 39.34375 47.367188 39.285156 47.050781 39.285156 L 42.273438 39.285156 C 41.957031 39.285156 41.652344 39.34375 41.359375 39.464844 C 41.066406 39.585938 40.808594 39.757812 40.585938 39.984375 C 40.359375 40.207031 40.1875 40.464844 40.066406 40.757812 C 39.945312 41.050781 39.886719 41.355469 39.886719 41.671875 Z M 42.273438 41.671875 L 47.050781 41.671875 L 47.050781 46.449219 L 42.273438 46.449219 Z M 42.273438 41.671875 " fill-opacity="1" fill-rule="nonzero"/><path fill="#001934" d="M 54.214844 46.449219 C 54.214844 46.765625 54.277344 47.070312 54.398438 47.363281 C 54.519531 47.65625 54.691406 47.914062 54.914062 48.136719 C 55.140625 48.363281 55.398438 48.535156 55.691406 48.65625 C 55.984375 48.777344 56.289062 48.835938 56.605469 48.835938 L 61.382812 48.835938 C 61.699219 48.835938 62.003906 48.777344 62.296875 48.65625 C 62.589844 48.535156 62.847656 48.363281 63.070312 48.136719 C 63.292969 47.914062 63.46875 47.65625 63.589844 47.363281 C 63.710938 47.070312 63.769531 46.765625 63.769531 46.449219 L 63.769531 41.671875 C 63.769531 41.355469 63.710938 41.050781 63.589844 40.757812 C 63.46875 40.464844 63.292969 40.207031 63.070312 39.984375 C 62.847656 39.757812 62.589844 39.585938 62.296875 39.464844 C 62.003906 39.34375 61.699219 39.285156 61.382812 39.285156 L 56.605469 39.285156 C 56.289062 39.285156 55.984375 39.34375 55.691406 39.464844 C 55.398438 39.585938 55.140625 39.757812 54.914062 39.984375 C 54.691406 40.207031 54.519531 40.464844 54.398438 40.757812 C 54.277344 41.050781 54.214844 41.355469 54.214844 41.671875 Z M 56.605469 41.671875 L 61.382812 41.671875 L 61.382812 46.449219 L 56.605469 46.449219 Z M 56.605469 41.671875 " fill-opacity="1" fill-rule="nonzero"/><path fill="#001934" d="M 11.222656 58.988281 C 11.222656 59.304688 11.285156 59.609375 11.40625 59.902344 C 11.527344 60.195312 11.699219 60.453125 11.921875 60.675781 C 12.148438 60.902344 12.40625 61.074219 12.699219 61.195312 C 12.992188 61.316406 13.296875 61.378906 13.613281 61.378906 L 18.390625 61.378906 C 18.707031 61.378906 19.011719 61.316406 19.304688 61.195312 C 19.597656 61.074219 19.855469 60.902344 20.078125 60.675781 C 20.300781 60.453125 20.476562 60.195312 20.597656 59.902344 C 20.71875 59.609375 20.777344 59.304688 20.777344 58.988281 L 20.777344 54.210938 C 20.777344 53.894531 20.71875 53.589844 20.597656 53.296875 C 20.476562 53.003906 20.300781 52.746094 20.078125 52.523438 C 19.855469 52.296875 19.597656 52.125 19.304688 52.003906 C 19.011719 51.882812 18.707031 51.824219 18.390625 51.824219 L 13.613281 51.824219 C 13.296875 51.824219 12.992188 51.882812 12.699219 52.003906 C 12.40625 52.125 12.148438 52.300781 11.921875 52.523438 C 11.699219 52.746094 11.527344 53.003906 11.40625 53.296875 C 11.285156 53.589844 11.222656 53.894531 11.222656 54.210938 Z M 13.613281 54.210938 L 18.390625 54.210938 L 18.390625 58.988281 L 13.613281 58.988281 Z M 13.613281 54.210938 " fill-opacity="1" fill-rule="nonzero"/><path fill="#001934" d="M 25.554688 58.988281 C 25.554688 59.304688 25.617188 59.609375 25.738281 59.902344 C 25.859375 60.195312 26.03125 60.453125 26.253906 60.675781 C 26.476562 60.902344 26.738281 61.074219 27.027344 61.195312 C 27.320312 61.316406 27.625 61.378906 27.941406 61.378906 L 32.71875 61.378906 C 33.035156 61.378906 33.339844 61.316406 33.632812 61.195312 C 33.925781 61.074219 34.183594 60.902344 34.410156 60.675781 C 34.632812 60.453125 34.804688 60.195312 34.925781 59.902344 C 35.046875 59.609375 35.109375 59.304688 35.109375 58.988281 L 35.109375 54.210938 C 35.109375 53.894531 35.046875 53.589844 34.925781 53.296875 C 34.804688 53.003906 34.632812 52.746094 34.410156 52.523438 C 34.183594 52.296875 33.925781 52.125 33.632812 52.003906 C 33.339844 51.882812 33.035156 51.824219 32.71875 51.824219 L 27.941406 51.824219 C 27.625 51.824219 27.320312 51.882812 27.027344 52.003906 C 26.738281 52.125 26.476562 52.300781 26.253906 52.523438 C 26.03125 52.746094 25.859375 53.003906 25.738281 53.296875 C 25.617188 53.589844 25.554688 53.894531 25.554688 54.210938 Z M 27.941406 54.210938 L 32.71875 54.210938 L 32.71875 58.988281 L 27.941406 58.988281 Z M 27.941406 54.210938 " fill-opacity="1" fill-rule="nonzero"/><path fill="#001934" d="M 39.886719 58.988281 C 39.886719 59.304688 39.945312 59.609375 40.066406 59.902344 C 40.1875 60.195312 40.359375 60.453125 40.585938 60.675781 C 40.808594 60.902344 41.066406 61.074219 41.359375 61.195312 C 41.652344 61.316406 41.957031 61.378906 42.273438 61.378906 L 47.050781 61.378906 C 47.367188 61.378906 47.671875 61.316406 47.964844 61.195312 C 48.257812 61.074219 48.515625 60.902344 48.738281 60.675781 C 48.964844 60.453125 49.136719 60.195312 49.257812 59.902344 C 49.378906 59.609375 49.4375 59.304688 49.4375 58.988281 L 49.4375 54.210938 C 49.4375 53.894531 49.378906 53.589844 49.257812 53.296875 C 49.136719 53.003906 48.964844 52.746094 48.738281 52.523438 C 48.515625 52.296875 48.257812 52.125 47.964844 52.003906 C 47.671875 51.882812 47.367188 51.824219 47.050781 51.824219 L 42.273438 51.824219 C 41.957031 51.824219 41.652344 51.882812 41.359375 52.003906 C 41.066406 52.125 40.808594 52.300781 40.585938 52.523438 C 40.359375 52.746094 40.1875 53.003906 40.066406 53.296875 C 39.945312 53.589844 39.886719 53.894531 39.886719 54.210938 Z M 42.273438 54.210938 L 47.050781 54.210938 L 47.050781 58.988281 L 42.273438 58.988281 Z M 42.273438 54.210938 " fill-opacity="1" fill-rule="nonzero"/><g clip-path="url(#4103e65548)"><path fill="#001934" d="M 63.769531 6.441406 L 60.1875 6.441406 L 60.1875 5.84375 C 60.1875 5.570312 60.160156 5.300781 60.105469 5.03125 C 60.054688 4.761719 59.972656 4.5 59.871094 4.246094 C 59.765625 3.992188 59.636719 3.75 59.484375 3.523438 C 59.332031 3.296875 59.15625 3.082031 58.964844 2.890625 C 58.769531 2.695312 58.558594 2.523438 58.328125 2.371094 C 58.101562 2.21875 57.859375 2.089844 57.605469 1.984375 C 57.355469 1.878906 57.09375 1.800781 56.824219 1.746094 C 56.554688 1.691406 56.28125 1.664062 56.007812 1.664062 C 55.734375 1.664062 55.460938 1.691406 55.191406 1.746094 C 54.921875 1.800781 54.660156 1.878906 54.40625 1.984375 C 54.15625 2.089844 53.914062 2.21875 53.683594 2.371094 C 53.457031 2.523438 53.246094 2.695312 53.050781 2.890625 C 52.859375 3.082031 52.683594 3.296875 52.53125 3.523438 C 52.378906 3.75 52.25 3.992188 52.144531 4.246094 C 52.039062 4.5 51.960938 4.761719 51.90625 5.03125 C 51.855469 5.300781 51.828125 5.570312 51.828125 5.84375 L 51.828125 6.441406 L 41.675781 6.441406 L 41.675781 5.84375 C 41.675781 5.570312 41.648438 5.300781 41.597656 5.03125 C 41.542969 4.761719 41.464844 4.5 41.359375 4.246094 C 41.253906 3.992188 41.125 3.75 40.972656 3.523438 C 40.820312 3.296875 40.648438 3.082031 40.453125 2.890625 C 40.257812 2.695312 40.046875 2.523438 39.820312 2.371094 C 39.589844 2.21875 39.351562 2.089844 39.097656 1.984375 C 38.84375 1.878906 38.582031 1.800781 38.3125 1.746094 C 38.042969 1.691406 37.773438 1.664062 37.496094 1.664062 C 37.222656 1.664062 36.949219 1.691406 36.679688 1.746094 C 36.414062 1.800781 36.152344 1.878906 35.898438 1.984375 C 35.644531 2.089844 35.402344 2.21875 35.175781 2.371094 C 34.945312 2.523438 34.734375 2.695312 34.542969 2.890625 C 34.347656 3.082031 34.175781 3.296875 34.023438 3.523438 C 33.871094 3.75 33.742188 3.992188 33.636719 4.246094 C 33.53125 4.5 33.449219 4.761719 33.398438 5.03125 C 33.34375 5.300781 33.316406 5.570312 33.316406 5.84375 L 33.316406 6.441406 L 23.167969 6.441406 L 23.167969 5.84375 C 23.167969 5.570312 23.140625 5.300781 23.085938 5.03125 C 23.03125 4.761719 22.953125 4.5 22.847656 4.246094 C 22.742188 3.992188 22.613281 3.75 22.460938 3.523438 C 22.308594 3.296875 22.136719 3.082031 21.941406 2.890625 C 21.746094 2.695312 21.535156 2.523438 21.308594 2.371094 C 21.082031 2.21875 20.839844 2.089844 20.585938 1.984375 C 20.332031 1.878906 20.070312 1.800781 19.800781 1.746094 C 19.53125 1.691406 19.261719 1.664062 18.988281 1.664062 C 18.710938 1.664062 18.441406 1.691406 18.171875 1.746094 C 17.902344 1.800781 17.640625 1.878906 17.386719 1.984375 C 17.132812 2.089844 16.890625 2.21875 16.664062 2.371094 C 16.4375 2.523438 16.226562 2.695312 16.03125 2.890625 C 15.835938 3.082031 15.664062 3.296875 15.511719 3.523438 C 15.359375 3.75 15.230469 3.992188 15.125 4.246094 C 15.019531 4.5 14.941406 4.761719 14.886719 5.03125 C 14.832031 5.300781 14.808594 5.570312 14.808594 5.84375 L 14.808594 6.441406 L 11.222656 6.441406 C 10.832031 6.441406 10.445312 6.480469 10.058594 6.558594 C 9.675781 6.636719 9.300781 6.75 8.941406 6.898438 C 8.578125 7.050781 8.234375 7.234375 7.910156 7.453125 C 7.582031 7.667969 7.28125 7.917969 7.003906 8.195312 C 6.726562 8.472656 6.480469 8.773438 6.261719 9.097656 C 6.042969 9.425781 5.859375 9.769531 5.710938 10.128906 C 5.558594 10.492188 5.445312 10.863281 5.367188 11.25 C 5.292969 11.632812 5.253906 12.023438 5.253906 12.414062 L 5.253906 49.433594 C 5.253906 49.59375 5.285156 49.746094 5.34375 49.890625 C 5.40625 50.039062 5.492188 50.167969 5.601562 50.277344 C 5.714844 50.390625 5.84375 50.476562 5.988281 50.539062 C 6.136719 50.597656 6.289062 50.628906 6.445312 50.628906 C 6.605469 50.628906 6.757812 50.597656 6.902344 50.539062 C 7.050781 50.476562 7.179688 50.390625 7.292969 50.277344 C 7.402344 50.167969 7.488281 50.039062 7.550781 49.890625 C 7.609375 49.746094 7.640625 49.59375 7.640625 49.433594 L 7.640625 23.160156 L 67.351562 23.160156 L 67.351562 51.824219 C 67.351562 51.980469 67.324219 52.132812 67.261719 52.28125 C 67.203125 52.425781 67.113281 52.554688 67.003906 52.667969 C 66.890625 52.78125 66.761719 52.867188 66.617188 52.925781 C 66.46875 52.988281 66.316406 53.015625 66.160156 53.015625 L 60.1875 53.015625 C 59.796875 53.019531 59.40625 53.054688 59.023438 53.132812 C 58.636719 53.210938 58.265625 53.324219 57.902344 53.472656 C 57.542969 53.625 57.199219 53.808594 56.871094 54.027344 C 56.546875 54.242188 56.246094 54.492188 55.96875 54.769531 C 55.691406 55.046875 55.441406 55.347656 55.226562 55.671875 C 55.007812 56 54.824219 56.34375 54.671875 56.703125 C 54.523438 57.066406 54.410156 57.441406 54.332031 57.824219 C 54.253906 58.207031 54.214844 58.597656 54.214844 58.988281 L 54.214844 64.960938 C 54.214844 65.117188 54.1875 65.269531 54.125 65.417969 C 54.066406 65.5625 53.976562 65.691406 53.867188 65.804688 C 53.753906 65.917969 53.625 66.003906 53.480469 66.0625 C 53.332031 66.125 53.179688 66.152344 53.023438 66.152344 L 11.222656 66.082031 C 10.75 66.082031 10.292969 65.988281 9.851562 65.808594 C 9.414062 65.625 9.027344 65.367188 8.691406 65.03125 C 8.355469 64.695312 8.097656 64.308594 7.914062 63.871094 C 7.730469 63.429688 7.640625 62.972656 7.640625 62.5 L 7.640625 58.988281 C 7.640625 58.832031 7.609375 58.679688 7.550781 58.53125 C 7.488281 58.386719 7.402344 58.257812 7.292969 58.144531 C 7.179688 58.03125 7.050781 57.945312 6.902344 57.886719 C 6.757812 57.824219 6.605469 57.792969 6.445312 57.792969 C 6.289062 57.792969 6.136719 57.824219 5.988281 57.886719 C 5.84375 57.945312 5.714844 58.03125 5.601562 58.144531 C 5.492188 58.257812 5.40625 58.386719 5.34375 58.53125 C 5.285156 58.679688 5.253906 58.832031 5.253906 58.988281 L 5.253906 67.347656 C 5.253906 67.738281 5.292969 68.128906 5.367188 68.511719 C 5.445312 68.898438 5.558594 69.269531 5.710938 69.632812 C 5.859375 69.992188 6.042969 70.339844 6.261719 70.664062 C 6.480469 70.988281 6.726562 71.292969 7.003906 71.566406 C 7.28125 71.84375 7.582031 72.09375 7.910156 72.3125 C 8.234375 72.527344 8.578125 72.710938 8.941406 72.863281 C 9.300781 73.011719 9.675781 73.125 10.058594 73.203125 C 10.445312 73.28125 10.832031 73.320312 11.222656 73.320312 L 63.769531 73.320312 C 64.160156 73.320312 64.550781 73.28125 64.933594 73.203125 C 65.320312 73.125 65.691406 73.011719 66.054688 72.863281 C 66.414062 72.710938 66.761719 72.527344 67.085938 72.3125 C 67.410156 72.09375 67.714844 71.84375 67.988281 71.566406 C 68.265625 71.292969 68.515625 70.988281 68.734375 70.664062 C 68.949219 70.339844 69.132812 69.992188 69.285156 69.632812 C 69.433594 69.269531 69.546875 68.898438 69.625 68.511719 C 69.703125 68.128906 69.742188 67.738281 69.742188 67.347656 L 69.742188 12.414062 C 69.742188 12.023438 69.703125 11.632812 69.625 11.25 C 69.546875 10.863281 69.433594 10.492188 69.285156 10.128906 C 69.132812 9.769531 68.949219 9.425781 68.734375 9.097656 C 68.515625 8.773438 68.265625 8.472656 67.988281 8.195312 C 67.714844 7.917969 67.410156 7.667969 67.085938 7.453125 C 66.761719 7.234375 66.414062 7.050781 66.054688 6.898438 C 65.691406 6.75 65.320312 6.636719 64.933594 6.558594 C 64.550781 6.480469 64.160156 6.441406 63.769531 6.441406 Z M 54.214844 5.84375 C 54.214844 5.609375 54.261719 5.378906 54.351562 5.160156 C 54.445312 4.941406 54.574219 4.746094 54.742188 4.578125 C 54.910156 4.410156 55.101562 4.28125 55.320312 4.191406 C 55.542969 4.097656 55.769531 4.054688 56.007812 4.054688 C 56.246094 4.054688 56.472656 4.097656 56.691406 4.191406 C 56.914062 4.28125 57.105469 4.410156 57.273438 4.578125 C 57.441406 4.746094 57.570312 4.941406 57.664062 5.160156 C 57.753906 5.378906 57.800781 5.609375 57.800781 5.84375 L 57.800781 10.621094 C 57.800781 10.859375 57.753906 11.089844 57.664062 11.308594 C 57.570312 11.527344 57.441406 11.722656 57.273438 11.890625 C 57.105469 12.058594 56.914062 12.1875 56.691406 12.277344 C 56.472656 12.367188 56.246094 12.414062 56.007812 12.414062 C 55.769531 12.414062 55.542969 12.367188 55.320312 12.277344 C 55.101562 12.1875 54.910156 12.058594 54.742188 11.890625 C 54.574219 11.722656 54.445312 11.527344 54.351562 11.308594 C 54.261719 11.089844 54.214844 10.859375 54.214844 10.621094 Z M 35.707031 5.84375 C 35.707031 5.609375 35.75 5.378906 35.84375 5.160156 C 35.933594 4.941406 36.0625 4.746094 36.230469 4.578125 C 36.398438 4.410156 36.59375 4.28125 36.8125 4.191406 C 37.03125 4.097656 37.257812 4.054688 37.496094 4.054688 C 37.734375 4.054688 37.964844 4.097656 38.183594 4.191406 C 38.402344 4.28125 38.597656 4.410156 38.765625 4.578125 C 38.933594 4.746094 39.0625 4.941406 39.152344 5.160156 C 39.242188 5.378906 39.289062 5.609375 39.289062 5.84375 L 39.289062 10.621094 C 39.289062 10.859375 39.242188 11.089844 39.152344 11.308594 C 39.0625 11.527344 38.933594 11.722656 38.765625 11.890625 C 38.597656 12.058594 38.402344 12.1875 38.183594 12.277344 C 37.964844 12.367188 37.734375 12.414062 37.496094 12.414062 C 37.257812 12.414062 37.03125 12.367188 36.8125 12.277344 C 36.59375 12.1875 36.398438 12.058594 36.230469 11.890625 C 36.0625 11.722656 35.933594 11.527344 35.84375 11.308594 C 35.75 11.089844 35.707031 10.859375 35.707031 10.621094 Z M 17.195312 5.84375 C 17.195312 5.609375 17.242188 5.378906 17.332031 5.160156 C 17.421875 4.941406 17.550781 4.746094 17.71875 4.578125 C 17.886719 4.410156 18.082031 4.28125 18.300781 4.191406 C 18.519531 4.097656 18.75 4.054688 18.988281 4.054688 C 19.222656 4.054688 19.453125 4.097656 19.671875 4.191406 C 19.890625 4.28125 20.085938 4.410156 20.253906 4.578125 C 20.421875 4.746094 20.550781 4.941406 20.640625 5.160156 C 20.730469 5.378906 20.777344 5.609375 20.777344 5.84375 L 20.777344 10.621094 C 20.777344 10.859375 20.730469 11.089844 20.640625 11.308594 C 20.550781 11.527344 20.421875 11.722656 20.253906 11.890625 C 20.085938 12.058594 19.890625 12.1875 19.671875 12.277344 C 19.453125 12.367188 19.222656 12.414062 18.988281 12.414062 C 18.75 12.414062 18.519531 12.367188 18.300781 12.277344 C 18.082031 12.1875 17.886719 12.058594 17.71875 11.890625 C 17.550781 11.722656 17.421875 11.527344 17.332031 11.308594 C 17.242188 11.089844 17.195312 10.859375 17.195312 10.621094 Z M 7.640625 20.773438 L 7.640625 12.414062 C 7.640625 11.9375 7.730469 11.480469 7.914062 11.042969 C 8.097656 10.605469 8.355469 10.214844 8.691406 9.878906 C 9.027344 9.542969 9.414062 9.285156 9.851562 9.105469 C 10.292969 8.921875 10.75 8.832031 11.222656 8.832031 L 14.808594 8.832031 L 14.808594 10.621094 C 14.808594 10.898438 14.832031 11.167969 14.886719 11.4375 C 14.941406 11.707031 15.019531 11.96875 15.125 12.222656 C 15.230469 12.476562 15.359375 12.714844 15.511719 12.945312 C 15.664062 13.171875 15.835938 13.382812 16.03125 13.578125 C 16.226562 13.773438 16.4375 13.945312 16.664062 14.097656 C 16.890625 14.25 17.132812 14.378906 17.386719 14.484375 C 17.640625 14.589844 17.902344 14.667969 18.171875 14.722656 C 18.441406 14.777344 18.710938 14.800781 18.988281 14.800781 C 19.261719 14.800781 19.53125 14.777344 19.800781 14.722656 C 20.070312 14.667969 20.332031 14.589844 20.585938 14.484375 C 20.839844 14.378906 21.082031 14.25 21.308594 14.097656 C 21.535156 13.945312 21.746094 13.773438 21.941406 13.578125 C 22.136719 13.382812 22.308594 13.171875 22.460938 12.945312 C 22.613281 12.714844 22.742188 12.476562 22.847656 12.222656 C 22.953125 11.96875 23.03125 11.707031 23.085938 11.4375 C 23.140625 11.167969 23.167969 10.898438 23.167969 10.621094 L 23.167969 8.832031 L 33.316406 8.832031 L 33.316406 10.621094 C 33.316406 10.898438 33.34375 11.167969 33.398438 11.4375 C 33.449219 11.707031 33.53125 11.96875 33.636719 12.222656 C 33.742188 12.476562 33.871094 12.714844 34.023438 12.945312 C 34.175781 13.171875 34.347656 13.382812 34.542969 13.578125 C 34.734375 13.773438 34.945312 13.945312 35.175781 14.097656 C 35.402344 14.25 35.644531 14.378906 35.898438 14.484375 C 36.152344 14.589844 36.414062 14.667969 36.679688 14.722656 C 36.949219 14.777344 37.222656 14.800781 37.496094 14.800781 C 37.773438 14.800781 38.042969 14.777344 38.3125 14.722656 C 38.582031 14.667969 38.84375 14.589844 39.097656 14.484375 C 39.351562 14.378906 39.589844 14.25 39.820312 14.097656 C 40.046875 13.945312 40.257812 13.773438 40.453125 13.578125 C 40.648438 13.382812 40.820312 13.171875 40.972656 12.945312 C 41.125 12.714844 41.253906 12.476562 41.359375 12.222656 C 41.464844 11.96875 41.542969 11.707031 41.597656 11.4375 C 41.648438 11.167969 41.675781 10.898438 41.675781 10.621094 L 41.675781 8.832031 L 51.828125 8.832031 L 51.828125 10.621094 C 51.828125 10.898438 51.855469 11.167969 51.90625 11.4375 C 51.960938 11.707031 52.039062 11.96875 52.144531 12.222656 C 52.25 12.476562 52.378906 12.714844 52.53125 12.945312 C 52.683594 13.171875 52.859375 13.382812 53.050781 13.578125 C 53.246094 13.773438 53.457031 13.945312 53.683594 14.097656 C 53.914062 14.25 54.15625 14.378906 54.40625 14.484375 C 54.660156 14.589844 54.921875 14.667969 55.191406 14.722656 C 55.460938 14.777344 55.734375 14.800781 56.007812 14.800781 C 56.28125 14.800781 56.554688 14.777344 56.824219 14.722656 C 57.09375 14.667969 57.355469 14.589844 57.605469 14.484375 C 57.859375 14.378906 58.101562 14.25 58.328125 14.097656 C 58.558594 13.945312 58.769531 13.773438 58.964844 13.578125 C 59.15625 13.382812 59.332031 13.171875 59.484375 12.945312 C 59.636719 12.714844 59.765625 12.476562 59.871094 12.222656 C 59.972656 11.96875 60.054688 11.707031 60.105469 11.4375 C 60.160156 11.167969 60.1875 10.898438 60.1875 10.621094 L 60.1875 8.832031 L 63.769531 8.832031 C 64.246094 8.832031 64.703125 8.921875 65.140625 9.105469 C 65.578125 9.285156 65.96875 9.542969 66.304688 9.878906 C 66.640625 10.214844 66.898438 10.605469 67.078125 11.042969 C 67.261719 11.480469 67.351562 11.9375 67.351562 12.414062 L 67.351562 20.773438 Z M 56.605469 58.988281 C 56.605469 58.511719 56.695312 58.054688 56.878906 57.617188 C 57.058594 57.179688 57.316406 56.792969 57.652344 56.457031 C 57.988281 56.121094 58.378906 55.859375 58.816406 55.679688 C 59.253906 55.496094 59.710938 55.40625 60.1875 55.40625 L 65.664062 55.40625 L 56.605469 64.46875 Z M 63.769531 70.929688 L 11.222656 70.929688 C 10.738281 70.929688 10.277344 70.835938 9.828125 70.644531 C 9.382812 70.457031 8.992188 70.1875 8.65625 69.84375 C 8.320312 69.496094 8.0625 69.097656 7.886719 68.644531 C 7.710938 68.195312 7.628906 67.726562 7.640625 67.242188 C 8.695312 68.054688 9.886719 68.460938 11.214844 68.46875 L 53.417969 68.542969 C 54.210938 68.542969 54.976562 68.390625 55.710938 68.085938 C 56.445312 67.785156 57.097656 67.351562 57.660156 66.789062 L 67.351562 57.097656 L 67.351562 67.347656 C 67.351562 67.824219 67.261719 68.28125 67.078125 68.71875 C 66.898438 69.15625 66.640625 69.546875 66.304688 69.882812 C 65.96875 70.21875 65.578125 70.476562 65.140625 70.65625 C 64.703125 70.839844 64.246094 70.929688 63.769531 70.929688 Z M 63.769531 70.929688 " fill-opacity="1" fill-rule="nonzero"/></g><g clip-path="url(#94d0b9bce2)"><path fill="#001934" d="M 7.640625 54.210938 C 7.640625 54.371094 7.609375 54.523438 7.550781 54.667969 C 7.488281 54.816406 7.402344 54.945312 7.292969 55.054688 C 7.179688 55.167969 7.050781 55.253906 6.902344 55.316406 C 6.757812 55.375 6.605469 55.40625 6.445312 55.40625 C 6.289062 55.40625 6.136719 55.375 5.988281 55.316406 C 5.84375 55.253906 5.714844 55.167969 5.601562 55.054688 C 5.492188 54.945312 5.40625 54.816406 5.34375 54.667969 C 5.285156 54.523438 5.253906 54.371094 5.253906 54.210938 C 5.253906 54.054688 5.285156 53.902344 5.34375 53.753906 C 5.40625 53.609375 5.492188 53.480469 5.601562 53.367188 C 5.714844 53.253906 5.84375 53.167969 5.988281 53.109375 C 6.136719 53.046875 6.289062 53.015625 6.445312 53.015625 C 6.605469 53.015625 6.757812 53.046875 6.902344 53.109375 C 7.050781 53.167969 7.179688 53.253906 7.292969 53.367188 C 7.402344 53.480469 7.488281 53.609375 7.550781 53.753906 C 7.609375 53.902344 7.640625 54.054688 7.640625 54.210938 Z M 7.640625 54.210938 " fill-opacity="1" fill-rule="nonzero"/></g></svg>