<svg xmlns="http://www.w3.org/2000/svg" xmlns:xlink="http://www.w3.org/1999/xlink" width="100" zoomAndPan="magnify" viewBox="0 0 75 74.999997" height="100" preserveAspectRatio="xMidYMid meet" version="1.0"><defs><clipPath id="f8af49fbed"><path d="M 4 4.625 L 71 4.625 L 71 27 L 4 27 Z M 4 4.625 " clip-rule="nonzero"/></clipPath><clipPath id="ef878c5e4f"><path d="M 0.78125 65 L 74.28125 65 L 74.28125 70.625 L 0.78125 70.625 Z M 0.78125 65 " clip-rule="nonzero"/></clipPath></defs><g clip-path="url(#f8af49fbed)"><path fill="#00183e" d="M 4.203125 26.195312 C 4.203125 25.105469 4.175781 24.054688 4.230469 23.007812 C 4.242188 22.792969 4.523438 22.523438 4.746094 22.402344 C 9.09375 20.023438 13.449219 17.664062 17.804688 15.304688 C 24.179688 11.847656 30.550781 8.398438 36.917969 4.925781 C 37.347656 4.695312 37.667969 4.675781 38.109375 4.914062 C 48.789062 10.722656 59.472656 16.523438 70.167969 22.300781 C 70.683594 22.578125 70.894531 22.871094 70.855469 23.460938 C 70.800781 24.351562 70.839844 25.246094 70.839844 26.195312 C 48.640625 26.195312 26.476562 26.195312 4.203125 26.195312 Z M 37.492188 22.570312 C 40.101562 22.589844 42.277344 20.449219 42.316406 17.824219 C 42.355469 15.222656 40.210938 13.03125 37.585938 12.984375 C 34.960938 12.9375 32.738281 15.125 32.730469 17.765625 C 32.71875 20.375 34.875 22.546875 37.492188 22.570312 Z M 37.492188 22.570312 " fill-opacity="1" fill-rule="nonzero"/></g><g clip-path="url(#ef878c5e4f)"><path fill="#00183e" d="M 74.226562 65.554688 C 74.226562 67.152344 74.226562 68.703125 74.226562 70.304688 C 49.761719 70.304688 25.332031 70.304688 0.785156 70.304688 C 0.785156 69.515625 0.785156 68.722656 0.785156 67.929688 C 0.785156 67.15625 0.785156 66.378906 0.785156 65.554688 C 25.28125 65.554688 49.710938 65.554688 74.226562 65.554688 Z M 74.226562 65.554688 " fill-opacity="1" fill-rule="nonzero"/></g><path fill="#00183e" d="M 68.964844 58.582031 C 68.964844 59.996094 68.964844 61.386719 68.964844 62.820312 C 47.996094 62.820312 27.054688 62.820312 6.082031 62.820312 C 6.082031 61.386719 6.082031 60 6.082031 58.582031 C 27.058594 58.582031 47.988281 58.582031 68.964844 58.582031 Z M 68.964844 58.582031 " fill-opacity="1" fill-rule="nonzero"/><path fill="#00183e" d="M 28.816406 55.882812 C 26.875 55.882812 25.023438 55.882812 23.128906 55.882812 C 23.128906 46.890625 23.128906 37.925781 23.128906 28.914062 C 25.019531 28.914062 26.910156 28.914062 28.816406 28.914062 C 28.816406 37.914062 28.816406 46.875 28.816406 55.882812 Z M 28.816406 55.882812 " fill-opacity="1" fill-rule="nonzero"/><path fill="#00183e" d="M 46.214844 55.875 C 46.214844 46.867188 46.214844 37.917969 46.214844 28.917969 C 48.121094 28.917969 50.007812 28.917969 51.925781 28.917969 C 51.925781 37.90625 51.925781 46.867188 51.925781 55.875 C 50.023438 55.875 48.15625 55.875 46.214844 55.875 Z M 46.214844 55.875 " fill-opacity="1" fill-rule="nonzero"/><path fill="#00183e" d="M 34.703125 28.90625 C 36.566406 28.90625 38.4375 28.90625 40.355469 28.90625 C 40.355469 37.882812 40.355469 46.84375 40.355469 55.859375 C 38.5 55.859375 36.632812 55.859375 34.703125 55.859375 C 34.703125 46.90625 34.703125 37.929688 34.703125 28.90625 Z M 34.703125 28.90625 " fill-opacity="1" fill-rule="nonzero"/><path fill="#00183e" d="M 57.785156 28.902344 C 59.671875 28.902344 61.542969 28.902344 63.457031 28.902344 C 63.457031 37.902344 63.457031 46.867188 63.457031 55.875 C 61.558594 55.875 59.691406 55.875 57.785156 55.875 C 57.785156 46.878906 57.785156 37.914062 57.785156 28.902344 Z M 57.785156 28.902344 " fill-opacity="1" fill-rule="nonzero"/><path fill="#00183e" d="M 11.589844 28.894531 C 13.507812 28.894531 15.359375 28.894531 17.253906 28.894531 C 17.253906 37.894531 17.253906 46.859375 17.253906 55.871094 C 15.375 55.871094 13.503906 55.871094 11.589844 55.871094 C 11.589844 46.894531 11.589844 37.925781 11.589844 28.894531 Z M 11.589844 28.894531 " fill-opacity="1" fill-rule="nonzero"/></svg>