<svg xmlns="http://www.w3.org/2000/svg" xmlns:xlink="http://www.w3.org/1999/xlink" width="100" zoomAndPan="magnify" viewBox="0 0 75 74.999997" height="100" preserveAspectRatio="xMidYMid meet" version="1.0"><defs><clipPath id="760a148da8"><path d="M 50 24 L 75 24 L 75 64.5 L 50 64.5 Z M 50 24 " clip-rule="nonzero"/></clipPath><clipPath id="faae4b171c"><path d="M 0 10.5 L 63 10.5 L 63 64.5 L 0 64.5 Z M 0 10.5 " clip-rule="nonzero"/></clipPath></defs><g clip-path="url(#760a148da8)"><path fill="#00183e" d="M 70.292969 24.25 L 54.3125 24.25 C 51.949219 24.25 50.03125 26.171875 50.03125 28.539062 L 50.03125 60.269531 C 50.03125 62.632812 51.949219 64.558594 54.3125 64.558594 L 70.292969 64.558594 C 72.65625 64.558594 74.582031 62.632812 74.582031 60.269531 L 74.582031 28.535156 C 74.582031 26.171875 72.65625 24.25 70.292969 24.25 Z M 71.261719 60.269531 C 71.261719 60.800781 70.828125 61.234375 70.292969 61.234375 L 54.3125 61.234375 C 53.785156 61.234375 53.351562 60.800781 53.351562 60.269531 L 53.351562 28.535156 C 53.351562 28.003906 53.785156 27.570312 54.3125 27.570312 L 70.292969 27.570312 C 70.828125 27.570312 71.261719 28.003906 71.261719 28.535156 Z M 71.261719 60.269531 " fill-opacity="1" fill-rule="nonzero"/></g><path fill="#00183e" d="M 63.964844 58.371094 C 63.964844 58.589844 63.921875 58.800781 63.839844 59.003906 C 63.753906 59.207031 63.632812 59.386719 63.480469 59.542969 C 63.324219 59.699219 63.144531 59.820312 62.941406 59.902344 C 62.738281 59.988281 62.523438 60.03125 62.304688 60.03125 C 62.085938 60.03125 61.875 59.988281 61.671875 59.902344 C 61.46875 59.820312 61.289062 59.699219 61.132812 59.542969 C 60.976562 59.386719 60.855469 59.207031 60.773438 59.003906 C 60.6875 58.800781 60.644531 58.589844 60.644531 58.371094 C 60.644531 58.148438 60.6875 57.9375 60.773438 57.734375 C 60.855469 57.53125 60.976562 57.351562 61.132812 57.195312 C 61.289062 57.039062 61.46875 56.921875 61.671875 56.835938 C 61.875 56.753906 62.085938 56.710938 62.304688 56.710938 C 62.523438 56.710938 62.738281 56.753906 62.941406 56.835938 C 63.144531 56.921875 63.324219 57.039062 63.480469 57.195312 C 63.632812 57.351562 63.753906 57.53125 63.839844 57.734375 C 63.921875 57.9375 63.964844 58.148438 63.964844 58.371094 Z M 63.964844 58.371094 " fill-opacity="1" fill-rule="nonzero"/><path fill="#00183e" d="M 65.433594 28.332031 L 59.179688 28.332031 C 58.261719 28.332031 57.523438 29.074219 57.523438 29.992188 C 57.523438 30.910156 58.261719 31.652344 59.179688 31.652344 L 65.433594 31.652344 C 66.351562 31.652344 67.097656 30.910156 67.097656 29.992188 C 67.097656 29.078125 66.351562 28.332031 65.433594 28.332031 Z M 65.433594 28.332031 " fill-opacity="1" fill-rule="nonzero"/><g clip-path="url(#faae4b171c)"><path fill="#00183e" d="M 47.84375 45.148438 C 47.84375 44.230469 47.101562 43.488281 46.183594 43.488281 L 3.742188 43.488281 L 3.742188 16.714844 C 3.742188 15.117188 5.042969 13.824219 6.632812 13.824219 L 55.984375 13.824219 C 57.578125 13.824219 58.875 15.117188 58.875 16.714844 L 58.875 20.402344 C 58.875 21.320312 59.617188 22.0625 60.535156 22.0625 C 61.453125 22.0625 62.199219 21.320312 62.199219 20.402344 L 62.199219 16.714844 C 62.195312 13.289062 59.410156 10.5 55.984375 10.5 L 6.632812 10.5 C 3.207031 10.5 0.417969 13.289062 0.417969 16.714844 L 0.417969 49.742188 C 0.417969 53.167969 3.207031 55.957031 6.632812 55.957031 L 22.328125 55.957031 L 22.328125 61.234375 L 18.625 61.234375 C 17.707031 61.234375 16.960938 61.976562 16.960938 62.894531 C 16.960938 63.8125 17.703125 64.558594 18.625 64.558594 L 43.988281 64.558594 C 44.90625 64.558594 45.652344 63.8125 45.652344 62.894531 C 45.652344 61.976562 44.90625 61.234375 43.988281 61.234375 L 40.285156 61.234375 L 40.285156 55.957031 L 46.179688 55.957031 C 47.097656 55.957031 47.839844 55.214844 47.839844 54.296875 C 47.839844 53.378906 47.097656 52.632812 46.179688 52.632812 L 6.632812 52.632812 C 5.039062 52.632812 3.742188 51.335938 3.742188 49.742188 L 3.742188 46.808594 L 46.183594 46.808594 C 47.101562 46.808594 47.84375 46.066406 47.84375 45.148438 Z M 36.96875 61.234375 L 25.644531 61.234375 L 25.644531 55.957031 L 36.96875 55.957031 Z M 36.96875 61.234375 " fill-opacity="1" fill-rule="nonzero"/></g><path fill="#00183e" d="M 32.96875 49.65625 C 32.96875 49.878906 32.925781 50.089844 32.84375 50.292969 C 32.757812 50.496094 32.636719 50.675781 32.480469 50.832031 C 32.328125 50.988281 32.148438 51.109375 31.941406 51.191406 C 31.738281 51.277344 31.527344 51.320312 31.308594 51.320312 C 31.085938 51.320312 30.875 51.277344 30.671875 51.191406 C 30.46875 51.109375 30.289062 50.988281 30.132812 50.832031 C 29.976562 50.675781 29.855469 50.496094 29.773438 50.292969 C 29.6875 50.089844 29.644531 49.878906 29.644531 49.65625 C 29.644531 49.4375 29.6875 49.226562 29.773438 49.023438 C 29.855469 48.820312 29.976562 48.640625 30.132812 48.484375 C 30.289062 48.328125 30.46875 48.207031 30.671875 48.121094 C 30.875 48.039062 31.085938 47.996094 31.308594 47.996094 C 31.527344 47.996094 31.738281 48.039062 31.941406 48.121094 C 32.148438 48.207031 32.328125 48.328125 32.480469 48.484375 C 32.636719 48.640625 32.757812 48.820312 32.84375 49.023438 C 32.925781 49.226562 32.96875 49.4375 32.96875 49.65625 Z M 32.96875 49.65625 " fill-opacity="1" fill-rule="nonzero"/></svg>